# xmcd CD database file
#
# Track frame offsets:
#	150
#	20432
#	33222
#	48810
#	67757
#	86070
#	106491
#	124250
#	143233
#	155412
#	170476
#	186895
#	203265
#
# Disc length: 2999 seconds
#
# Revision: 2
# Processed by: cddbd v1.5.2PL0 Copyright (c) Steve Scherf et al.
# Submitted via: CDex 1.72
#
DISCID=a20bb50d
DTITLE=Talley, James (USA-98-Nashville City Blues-bls) - Nashville City Blues
DYEAR=1998
DGENRE=Blues
TTITLE0=Nashville City Blues
TTITLE1=Down on the Corner
TTITLE2=Don't You Feel Low Down
TTITLE3=Rough Edge
TTITLE4=Baby Needs Some Good Times
TTITLE5=Streamline Flyer
TTITLE6=When I Need Some Love
TTITLE7=If It Wasn't For The Blues
TTITLE8=You Can't Get There From Here
TTITLE9=So I'm Not the Only One
TTITLE10=House Right Down the Road
TTITLE11=Workin' for Wages
TTITLE12=I've Seen the Bear
EXTD=YEAR: 1998
EXTT0=
EXTT1=
EXTT2=
EXTT3=
EXTT4=
EXTT5=
EXTT6=
EXTT7=
EXTT8=
EXTT9=
EXTT10=
EXTT11=
EXTT12=
PLAYORDER=
